<?xml version="1.0" encoding="iso-8859-1"?>
<!-- Uploaded to: SVG Repo, www.svgrepo.com, Generator: SVG Repo Mixer Tools -->
<svg version="1.1" id="Layer_1" xmlns="http://www.w3.org/2000/svg" xmlns:xlink="http://www.w3.org/1999/xlink" 
	 viewBox="0 0 512 512" xml:space="preserve">
<g>
	<path style="fill:#615349;" d="M484.174,72.348h-66.783c-9.217,0-16.696-7.473-16.696-16.696s7.479-16.696,16.696-16.696h66.783
		c9.217,0,16.696,7.473,16.696,16.696S493.391,72.348,484.174,72.348z"/>
	<path style="fill:#615349;" d="M484.174,139.13h-66.783c-9.217,0-16.696-7.473-16.696-16.696s7.479-16.696,16.696-16.696h66.783
		c9.217,0,16.696,7.473,16.696,16.696S493.391,139.13,484.174,139.13z"/>
</g>
<path style="fill:#79695A;" d="M83.478,406.261c-2.231,0-26.65,0.173-28.738,0C13.748,402.872,0,366.584,0,322.783V189.217
	c0-64.441,52.424-116.87,116.87-116.87h200.348c9.217,0,16.696,7.473,16.696,16.696s-7.479,16.696-16.696,16.696H116.87
	c-46.032,0-83.478,37.446-83.478,83.478v133.565c0,24.949,0.168,46.309,20.559,50.087c2.183,0.404,26.858,0,29.528,0
	c9.217,0,16.696,7.473,16.696,16.696C100.174,398.788,92.695,406.261,83.478,406.261z"/>
<path style="fill:#6C5B52;" d="M317.217,72.348h-44.522v33.391h44.522c9.217,0,16.696-7.473,16.696-16.696
	S326.435,72.348,317.217,72.348z"/>
<path style="fill:#FF6243;" d="M422.065,317.551l-25.71-77.356c-6.901-20.48-25.934-34.282-47.526-34.282H196.562
	c-21.592,0-40.625,13.802-47.526,34.282l-25.71,77.356c-3.674,10.797,4.451,21.927,15.804,21.927h267.13
	C417.614,339.478,425.739,328.348,422.065,317.551z"/>
<path style="fill:#FF0C38;" d="M406.261,339.478H272.696V205.913h76.133c21.592,0,40.625,13.802,47.526,34.282l25.71,77.356
	C425.739,328.348,417.614,339.478,406.261,339.478z"/>
<path style="fill:#79695A;" d="M364.633,250.769c-2.226-6.901-8.682-11.464-15.804-11.464H196.562
	c-7.122,0-13.579,4.563-15.804,11.464l-18.475,55.318h220.826L364.633,250.769z"/>
<path style="fill:#6C5B52;" d="M383.108,306.087H272.696v-66.783h76.133c7.122,0,13.579,4.563,15.804,11.464L383.108,306.087z"/>
<rect x="256" y="205.913" style="fill:#FF6243;" width="33.391" height="133.565"/>
<rect x="272.696" y="205.913" style="fill:#FF0C38;" width="16.696" height="133.565"/>
<path style="fill:#FF6243;" d="M510.33,372.87c-7.791-38.066-41.405-66.783-81.809-66.783H116.87
	c-27.603,0-50.087,22.483-50.087,50.087v66.783c0,27.603,22.483,50.087,50.087,50.087h345.043c27.603,0,50.087-22.483,50.087-50.087
	v-33.391C512,383.889,511.443,378.212,510.33,372.87z"/>
<path style="fill:#FF0C38;" d="M512,389.565v33.391c0,27.603-22.483,50.087-50.087,50.087H272.696V306.087h155.826
	c40.403,0,74.017,28.716,81.809,66.783C511.443,378.212,512,383.889,512,389.565z"/>
<path style="fill:#515BE0;" d="M417.391,172.522h-66.783c-27.619,0-50.087-22.468-50.087-50.087V55.652
	c0-27.619,22.468-50.087,50.087-50.087h66.783c9.217,0,16.696,7.473,16.696,16.696v133.565
	C434.087,165.049,426.608,172.522,417.391,172.522z"/>
<path style="fill:#79695A;" d="M289.391,406.261H256c-9.217,0-16.696-7.473-16.696-16.696c0-9.223,7.479-16.696,16.696-16.696
	h33.391c9.217,0,16.696,7.473,16.696,16.696C306.087,398.788,298.608,406.261,289.391,406.261z"/>
<path style="fill:#D0D5E5;" d="M512,389.565v16.696h-50.087c-9.239,0-16.696-7.457-16.696-16.696
	c0-9.238,7.456-16.696,16.696-16.696h48.417C511.443,378.212,512,383.889,512,389.565z"/>
<path style="fill:#DBE1F1;" d="M116.87,372.87H66.783v33.391h50.087c9.217,0,16.696-7.473,16.696-16.696
	C133.565,380.342,126.087,372.87,116.87,372.87z"/>
<path style="fill:#79695A;" d="M183.652,506.435c-27.619,0-50.087-22.468-50.087-50.087s22.468-50.087,50.087-50.087
	s50.087,22.468,50.087,50.087S211.271,506.435,183.652,506.435z"/>
<path style="fill:#6C5B52;" d="M233.739,456.348c0-27.619-22.468-50.087-50.087-50.087v100.174
	C211.271,506.435,233.739,483.967,233.739,456.348z"/>
<path style="fill:#DBE1F1;" d="M183.652,439.652c-9.206,0-16.696,7.49-16.696,16.696c0,9.206,7.49,16.696,16.696,16.696
	s16.696-7.49,16.696-16.696C200.348,447.142,192.858,439.652,183.652,439.652z"/>
<path style="fill:#D0D5E5;" d="M200.348,456.348c0-9.206-7.49-16.696-16.696-16.696v33.391
	C192.858,473.043,200.348,465.554,200.348,456.348z"/>
<path style="fill:#79695A;" d="M395.13,506.435c-27.619,0-50.087-22.468-50.087-50.087s22.468-50.087,50.087-50.087
	c27.619,0,50.087,22.468,50.087,50.087S422.749,506.435,395.13,506.435z"/>
<path style="fill:#6C5B52;" d="M445.217,456.348c0-27.619-22.468-50.087-50.087-50.087v100.174
	C422.749,506.435,445.217,483.967,445.217,456.348z"/>
<path style="fill:#DBE1F1;" d="M395.13,439.652c-9.206,0-16.696,7.49-16.696,16.696c0,9.206,7.49,16.696,16.696,16.696
	c9.206,0,16.696-7.49,16.696-16.696C411.826,447.142,404.336,439.652,395.13,439.652z"/>
<path style="fill:#D0D5E5;" d="M411.826,456.348c0-9.206-7.49-16.696-16.696-16.696v33.391
	C404.336,473.043,411.826,465.554,411.826,456.348z"/>
<path style="fill:#6C5B52;" d="M289.391,372.87h-16.696v33.391h16.696c9.217,0,16.696-7.473,16.696-16.696
	C306.087,380.342,298.608,372.87,289.391,372.87z"/>
</svg>