<svg width="512" height="512" viewBox="0 0 512 512" fill="none" xmlns="http://www.w3.org/2000/svg">
<g clip-path="url(#clip0_1_29)">
<path d="M389.696 148.391H350.565C345.164 148.391 340.782 144.013 340.782 138.609C340.782 133.204 345.164 128.826 350.565 128.826H389.696C395.096 128.826 399.479 133.204 399.479 138.609C399.479 144.013 395.096 148.391 389.696 148.391Z" fill="#615349"/>
<path d="M389.696 187.521H350.565C345.164 187.521 340.782 183.143 340.782 177.739C340.782 172.335 345.164 167.956 350.565 167.956H389.696C395.096 167.956 399.479 172.335 399.479 177.739C399.479 183.143 395.096 187.521 389.696 187.521Z" fill="#615349"/>
<path d="M154.913 344.044C153.606 344.044 139.298 344.145 138.074 344.044C114.055 342.058 106 320.795 106 295.131V216.869C106 179.111 136.717 148.391 174.479 148.391H291.87C297.271 148.391 301.653 152.77 301.653 158.174C301.653 163.578 297.271 167.956 291.87 167.956H174.479C147.507 167.956 125.566 189.897 125.566 216.869V295.13C125.566 309.749 125.664 322.264 137.612 324.478C138.891 324.715 153.349 324.478 154.913 324.478C160.314 324.478 164.696 328.857 164.696 334.261C164.696 339.665 160.313 344.044 154.913 344.044Z" fill="#79695A"/>
<path d="M291.869 148.391H265.782V167.956H291.869C297.27 167.956 301.652 163.578 301.652 158.174C301.652 152.77 297.271 148.391 291.869 148.391Z" fill="#6C5B52"/>
<path d="M353.304 292.065L338.239 246.739C334.196 234.739 323.044 226.652 310.392 226.652H221.173C208.521 226.652 197.369 234.739 193.326 246.739L178.261 292.065C176.109 298.391 180.869 304.913 187.521 304.913H344.043C350.696 304.913 355.456 298.391 353.304 292.065Z" fill="#FF6243"/>
<path d="M344.044 304.913H265.783V226.652H310.392C323.044 226.652 334.196 234.739 338.239 246.739L353.304 292.065C355.456 298.391 350.696 304.913 344.044 304.913Z" fill="#FF0C38"/>
<path d="M319.652 252.935C318.348 248.891 314.565 246.218 310.392 246.218H221.173C217 246.218 213.217 248.891 211.913 252.935L201.088 285.348H330.478L319.652 252.935Z" fill="#79695A"/>
<path d="M330.477 285.348H265.783V246.217H310.392C314.565 246.217 318.348 248.891 319.652 252.934L330.477 285.348Z" fill="#6C5B52"/>
<path d="M275.565 226.652H256V304.913H275.565V226.652Z" fill="#FF6243"/>
<path d="M275.566 226.652H265.783V304.913H275.566V226.652Z" fill="#FF0C38"/>
<path d="M405.021 324.479C400.456 302.174 380.761 285.348 357.086 285.348H174.478C158.305 285.348 145.131 298.521 145.131 314.696V353.826C145.131 370 158.304 383.174 174.478 383.174H376.652C392.826 383.174 406 370.001 406 353.826V334.261C406 330.935 405.674 327.609 405.021 324.479Z" fill="#FF6243"/>
<path d="M406 334.261V353.826C406 369.999 392.826 383.174 376.652 383.174H265.783V285.348H357.087C380.761 285.348 400.456 302.174 405.022 324.479C405.674 327.609 406 330.935 406 334.261Z" fill="#FF0C38"/>
<path d="M350.565 207.087H311.434C295.251 207.087 282.087 193.922 282.087 177.739V138.609C282.087 122.426 295.251 109.261 311.434 109.261H350.565C355.966 109.261 360.348 113.639 360.348 119.044V197.304C360.348 202.708 355.966 207.087 350.565 207.087Z" fill="#515BE0"/>
<path d="M275.565 344.044H256C250.599 344.044 246.217 339.665 246.217 334.261C246.217 328.857 250.599 324.478 256 324.478H275.565C280.966 324.478 285.348 328.857 285.348 334.261C285.348 339.665 280.966 344.044 275.565 344.044Z" fill="#79695A"/>
<path d="M406 334.261V344.044H376.652C371.239 344.044 366.869 339.674 366.869 334.261C366.869 328.848 371.238 324.478 376.652 324.478H405.022C405.674 327.609 406 330.935 406 334.261Z" fill="#D0D5E5"/>
<path d="M174.478 324.479H145.131V344.044H174.478C179.879 344.044 184.261 339.665 184.261 334.261C184.261 328.857 179.879 324.479 174.478 324.479Z" fill="#DBE1F1"/>
<path d="M213.609 402.739C197.426 402.739 184.261 389.574 184.261 373.391C184.261 357.208 197.426 344.044 213.609 344.044C229.792 344.044 242.956 357.208 242.956 373.391C242.956 389.574 229.792 402.739 213.609 402.739Z" fill="#79695A"/>
<path d="M242.956 373.391C242.956 357.208 229.792 344.044 213.609 344.044V402.739C229.792 402.739 242.956 389.574 242.956 373.391Z" fill="#6C5B52"/>
<path d="M213.609 363.609C208.214 363.609 203.826 367.997 203.826 373.391C203.826 378.786 208.214 383.174 213.609 383.174C219.003 383.174 223.391 378.786 223.391 373.391C223.391 367.997 219.003 363.609 213.609 363.609Z" fill="#DBE1F1"/>
<path d="M223.391 373.391C223.391 367.997 219.003 363.609 213.609 363.609V383.174C219.003 383.174 223.391 378.786 223.391 373.391Z" fill="#D0D5E5"/>
<path d="M337.521 402.739C321.338 402.739 308.174 389.574 308.174 373.391C308.174 357.208 321.338 344.044 337.521 344.044C353.704 344.044 366.869 357.208 366.869 373.391C366.869 389.574 353.704 402.739 337.521 402.739Z" fill="#79695A"/>
<path d="M366.869 373.391C366.869 357.208 353.704 344.044 337.521 344.044V402.739C353.704 402.739 366.869 389.574 366.869 373.391Z" fill="#6C5B52"/>
<path d="M337.521 363.609C332.127 363.609 327.739 367.997 327.739 373.391C327.739 378.786 332.127 383.174 337.521 383.174C342.916 383.174 347.304 378.786 347.304 373.391C347.304 367.997 342.916 363.609 337.521 363.609Z" fill="#DBE1F1"/>
<path d="M347.304 373.391C347.304 367.997 342.916 363.609 337.521 363.609V383.174C342.916 383.174 347.304 378.786 347.304 373.391Z" fill="#D0D5E5"/>
<path d="M275.565 324.479H265.782V344.044H275.565C280.966 344.044 285.348 339.665 285.348 334.261C285.348 328.857 280.966 324.479 275.565 324.479Z" fill="#6C5B52"/>
</g>
<defs>
<clipPath id="clip0_1_29">
<rect width="300" height="300" fill="white" transform="translate(106 106)"/>
</clipPath>
</defs>
</svg>
